# xmcd CD database file
#
# Track frame offsets:
#	150
#	7732
#	47780
#	55895
#	66162
#	76000
#	80915
#	93312
#	109805
#	117095
#	130422
#	137205
#
# Disc length: 1955 seconds
#
# Revision: 2
# Processed by: cddbd v1.5.2PL0 Copyright (c) Steve Scherf et al.
# Submitted via: CDex 1.70beta2
#
DISCID=9b07a10c
DTITLE=泉 野明(CV:冨永 み～な)　篠原 遊馬(CV:古川 登志夫)　太田 功(CV:池水通洋)　香貫花；クランシー(CV:井上 瑤)　進士 幹泰(CV:二又 一成)　山崎 ひろみ(CV:郷里 大輔)　後藤 喜一(CV:大林 隆介) - 機動警察パトレイバーCD BOX DELUXE Disc 3
DYEAR=1992
DGENRE=Soundtrack
TTITLE0=世にまれなる天才はいざ知らず……
TTITLE1=1998年4月10日
TTITLE2=1998年4月13日
TTITLE3=1998年4月22日
TTITLE4=1998年5月19日
TTITLE5=1998年5月20日
TTITLE6=1998年6月5日から2週間の記録
TTITLE7=1998年6月30日
TTITLE8=1998年7月7日
TTITLE9=1998年7月15日
TTITLE10=1998年7月31日
TTITLE11=2001年9月28日
EXTD=YEAR: 1992
EXTT0=
EXTT1=
EXTT2=
EXTT3=
EXTT4=
EXTT5=
EXTT6=
EXTT7=
EXTT8=
EXTT9=
EXTT10=
EXTT11=
PLAYORDER=
